<svg width="41" height="40" viewBox="0 0 41 40" fill="none" xmlns="http://www.w3.org/2000/svg">
<mask id="mask0_21_1829" style="mask-type:alpha" maskUnits="userSpaceOnUse" x="0" y="0" width="41" height="40">
<rect x="0.5" width="40" height="40" fill="#D9D9D9"/>
</mask>
<g mask="url(#mask0_21_1829)">
<path d="M3.83301 36.6666V6.11117C3.83301 5.36117 4.10842 4.71061 4.65926 4.1595C5.21037 3.60867 5.86092 3.33325 6.61092 3.33325H34.3884C35.1384 3.33325 35.789 3.60867 36.3401 4.1595C36.8909 4.71061 37.1663 5.36117 37.1663 6.11117V27.222C37.1663 27.972 36.8909 28.6226 36.3401 29.1737C35.789 29.7245 35.1384 29.9999 34.3884 29.9999H10.4997L3.83301 36.6666ZM20.4993 24.8053C20.9162 24.8053 21.2659 24.6644 21.5484 24.3824C21.8306 24.1002 21.9718 23.7506 21.9718 23.3337C21.9718 22.9167 21.8308 22.567 21.5488 22.2845C21.2666 22.0023 20.917 21.8612 20.5001 21.8612C20.0831 21.8612 19.7334 22.0021 19.4509 22.2841C19.1687 22.5663 19.0276 22.9159 19.0276 23.3328C19.0276 23.7498 19.1686 24.0995 19.4505 24.382C19.7327 24.6642 20.0823 24.8053 20.4993 24.8053ZM19.1109 18.6387H21.8884V8.33325H19.1109V18.6387Z" fill="#6C3B01"/>
</g>
</svg>
