<svg width="41" height="40" viewBox="0 0 41 40" fill="none" xmlns="http://www.w3.org/2000/svg">
<mask id="mask0_21_1848" style="mask-type:alpha" maskUnits="userSpaceOnUse" x="0" y="0" width="41" height="40">
<rect x="0.5" width="40" height="40" fill="#D9D9D9"/>
</mask>
<g mask="url(#mask0_21_1848)">
<path d="M12.7224 36.6667C11.1855 36.6667 9.87533 36.125 8.79199 35.0417C7.70866 33.9584 7.16699 32.6482 7.16699 31.1113V8.88879C7.16699 7.35185 7.70866 6.04171 8.79199 4.95837C9.87533 3.87504 11.1855 3.33337 12.7224 3.33337H33.8337V28.3334C33.1206 28.3334 32.5257 28.6088 32.0491 29.1596C31.5721 29.7107 31.3337 30.3613 31.3337 31.1113C31.3337 31.8613 31.5721 32.5117 32.0491 33.0625C32.5257 33.6134 33.1206 33.8888 33.8337 33.8888V36.6667H12.7224ZM13.8337 25.5555H16.6116V6.11129H13.8337V25.5555ZM12.7224 33.8888H29.2641C29.0419 33.4816 28.8682 33.0441 28.7432 32.5763C28.6182 32.1088 28.5557 31.6205 28.5557 31.1113C28.5557 30.5927 28.616 30.1018 28.7366 29.6388C28.8569 29.176 29.042 28.7409 29.292 28.3334H12.7224C11.9446 28.3334 11.2873 28.6042 10.7503 29.1459C10.2134 29.6875 9.94491 30.3427 9.94491 31.1113C9.94491 31.8891 10.2134 32.5464 10.7503 33.0834C11.2873 33.6203 11.9446 33.8888 12.7224 33.8888Z" fill="#004641"/>
</g>
</svg>
