<svg width="61" height="60" viewBox="0 0 61 60" fill="none" xmlns="http://www.w3.org/2000/svg">
<g filter="url(#filter0_d_21_1839)">
<path d="M33.4999 49.5H27.5C27.1021 49.5 26.7206 49.658 26.4393 49.9393C26.158 50.2206 26 50.6022 26 51C26 51.3978 26.158 51.7794 26.4393 52.0607C26.7206 52.342 27.1021 52.5 27.5 52.5H33.4999C33.8977 52.5 34.2793 52.342 34.5606 52.0607C34.8419 51.7794 34.9999 51.3978 34.9999 51C34.9999 50.6022 34.8419 50.2206 34.5606 49.9393C34.2793 49.658 33.8977 49.5 33.4999 49.5ZM34.9999 45H26C25.6021 45 25.2206 45.158 24.9393 45.4393C24.658 45.7206 24.5 46.1022 24.5 46.5C24.5 46.8978 24.658 47.2794 24.9393 47.5607C25.2206 47.842 25.6021 48 26 48H34.9999C35.3977 48 35.7792 47.842 36.0605 47.5607C36.3418 47.2794 36.4999 46.8978 36.4999 46.5C36.4999 46.1022 36.3418 45.7206 36.0605 45.4393C35.7792 45.158 35.3977 45 34.9999 45ZM41.133 11.8772C38.3139 9.05442 34.5377 7.50004 30.4999 7.50004C28.5288 7.49534 26.5762 7.88012 24.7542 8.63228C22.9322 9.38443 21.2767 10.4891 19.8829 11.883C18.4891 13.2768 17.3844 14.9322 16.6323 16.7542C15.8801 18.5762 15.4953 20.5289 15.5 22.5C15.5 26.8706 17.1753 30.9591 20.0938 33.7163L20.5025 34.0997C22.1909 35.6785 24.5 37.8413 24.5 39.75V42C24.5 42.3978 24.658 42.7794 24.9393 43.0607C25.2206 43.342 25.6021 43.5 26 43.5H28.2499C28.4489 43.5 28.6396 43.421 28.7803 43.2803C28.9209 43.1397 28.9999 42.9489 28.9999 42.75V31.7644C29 31.6127 28.954 31.4646 28.8682 31.3396C28.7823 31.2146 28.6606 31.1185 28.519 31.0641C27.6528 30.7107 26.83 30.2593 26.0665 29.7188C25.895 29.6092 25.7475 29.4659 25.6331 29.2975C25.5187 29.1291 25.4398 28.9392 25.4011 28.7393C25.3625 28.5395 25.3649 28.3338 25.4083 28.1349C25.4517 27.936 25.5351 27.7481 25.6534 27.5824C25.7718 27.4168 25.9226 27.277 26.0967 27.1715C26.2708 27.0661 26.4646 26.9972 26.6662 26.969C26.8678 26.9408 27.0731 26.954 27.2694 27.0077C27.4658 27.0613 27.6492 27.1544 27.8084 27.2813C28.5021 27.7725 29.8381 28.5 30.4999 28.5C31.1618 28.5 32.4977 27.7706 33.1933 27.2813C33.5172 27.0776 33.9067 27.0055 34.282 27.0795C34.6574 27.1536 34.9903 27.3683 35.2125 27.6797C35.4348 27.9911 35.5297 28.3756 35.4778 28.7547C35.4259 29.1337 35.2311 29.4786 34.9333 29.7188C34.1697 30.2584 33.3469 30.7088 32.4808 31.0613C32.3393 31.1157 32.2175 31.2117 32.1317 31.3368C32.0458 31.4618 31.9999 31.6099 31.9999 31.7616V42.75C31.9999 42.9489 32.0789 43.1397 32.2196 43.2803C32.3602 43.421 32.551 43.5 32.7499 43.5H34.9999C35.3977 43.5 35.7792 43.342 36.0605 43.0607C36.3418 42.7794 36.4999 42.3978 36.4999 42V39.75C36.4999 37.8863 38.7836 35.7253 40.4514 34.1466L40.9117 33.7097C43.9136 30.8438 45.4998 26.9635 45.4998 22.5C45.5097 20.5287 45.1289 18.5749 44.3794 16.7516C43.6299 14.9283 42.5265 13.2716 41.133 11.8772Z" fill="#0062B5"/>
</g>
<defs>
<filter id="filter0_d_21_1839" x="-3.5" y="-3" width="68" height="68" filterUnits="userSpaceOnUse" color-interpolation-filters="sRGB">
<feFlood flood-opacity="0" result="BackgroundImageFix"/>
<feColorMatrix in="SourceAlpha" type="matrix" values="0 0 0 0 0 0 0 0 0 0 0 0 0 0 0 0 0 0 127 0" result="hardAlpha"/>
<feOffset dy="1"/>
<feGaussianBlur stdDeviation="2"/>
<feComposite in2="hardAlpha" operator="out"/>
<feColorMatrix type="matrix" values="0 0 0 0 0 0 0 0 0 0 0 0 0 0 0 0 0 0 0.25 0"/>
<feBlend mode="normal" in2="BackgroundImageFix" result="effect1_dropShadow_21_1839"/>
<feBlend mode="normal" in="SourceGraphic" in2="effect1_dropShadow_21_1839" result="shape"/>
</filter>
</defs>
</svg>
